<?xml version="1.0" standalone="no"?>
<!DOCTYPE svg PUBLIC "-//W3C//DTD SVG 20010904//EN"
 "http://www.w3.org/TR/2001/REC-SVG-20010904/DTD/svg10.dtd">
<svg version="1.0" xmlns="http://www.w3.org/2000/svg"
 width="840.000000pt" height="674.000000pt" viewBox="0 0 840.000000 674.000000"
 preserveAspectRatio="xMidYMid meet">

<g transform="translate(0.000000,674.000000) scale(0.100000,-0.100000)"
fill="#000000" stroke="none">
<path d="M4090 6294 c-262 -142 -713 -339 -985 -429 -299 -100 -518 -150
-1035 -235 -140 -24 -265 -46 -277 -51 -22 -8 -23 -13 -23 -137 0 -262 46
-1147 75 -1452 24 -253 133 -731 239 -1050 104 -315 208 -550 361 -815 290
-502 545 -821 920 -1150 342 -300 455 -384 689 -512 136 -74 130 -74 242 -19
140 67 366 213 486 313 469 392 708 651 991 1074 350 525 550 1010 701 1699
58 262 81 429 100 710 20 288 43 788 52 1095 l7 240 -84 18 c-46 9 -205 37
-353 62 -703 119 -1050 231 -1725 561 -140 68 -264 124 -275 124 -12 0 -59
-21 -106 -46z"/>
</g>
</svg>
